<svg width="300" height="300" viewBox="0 0 300 300" fill="none" xmlns="http://www.w3.org/2000/svg">
<g clip-path="url(#clip0_243_340)">
<rect width="300" height="300" fill="black"/>
<path d="M262.896 186.887C262.896 264.623 226.605 264.623 151.451 264.623C76.297 264.623 40.0059 258.533 40.0059 186.887C40.0059 115.241 89.9016 57.1606 151.451 57.1606C213 57.1606 262.896 115.241 262.896 186.887Z" fill="white"/>
<path d="M255.574 47.3887C264.529 42.1935 269.007 39.5959 271.325 41.3356C273.644 43.0752 271.675 47.5546 267.737 56.5134L238.478 123.074C236.507 127.556 235.522 129.797 233.451 130.3C231.38 130.803 229.364 129.291 225.332 126.266L188.06 98.3042C184.028 95.2794 182.012 93.7671 182.167 91.8265C182.322 89.8859 184.562 88.5861 189.043 85.9867L255.574 47.3887Z" fill="white"/>
<path d="M33.5917 57.9873C32.4755 54.8484 35.9578 52.0287 39.2675 53.3914L105.037 80.4697C107.812 81.612 108.401 84.9602 106.149 86.7842L62.5586 122.081C60.306 123.905 56.7073 122.994 55.7717 120.362L33.5917 57.9873Z" fill="white"/>
<path d="M83.4849 194.289C88.4577 180.287 108.578 181.262 112.174 195.679L129.016 263.206C131.842 274.538 121.205 284.61 110.043 281.17L73.2483 269.83C65.0938 267.317 60.6755 258.516 63.5312 250.475L83.4849 194.289Z" fill="black"/>
<path d="M178.98 203.839C181.579 188.426 203.311 187.32 208.13 202.355L225.506 256.572C228.384 265.55 222.412 274.746 213.073 275.72L186.08 278.535C176.087 279.578 167.703 270.718 169.363 260.872L178.98 203.839Z" fill="black"/>
<path d="M72.0522 218.244C67.5139 236.452 67.4615 249.364 63.2629 250.024C59.0643 250.683 50.7462 232.705 50.7462 232.705C49.1971 224.587 53.4545 221.284 57.6531 220.624C75.677 207.499 76.1503 201.802 72.0522 218.244Z" fill="white"/>
<path d="M229.601 194.035C220.345 222.967 219.876 226.394 220.029 244.254C220.124 255.272 230.067 260.83 240.027 254.385V254.385C243.307 252.264 243.822 251.165 245.871 248.001C247.384 245.666 248.568 243.517 249.467 241.547C254.465 230.599 246.329 218.528 244.115 207.038C239.231 181.694 238.274 166.923 229.601 194.035Z" fill="white"/>
<path d="M129.655 257.075C135.381 263.597 146.849 263.95 142.035 267.43C137.221 270.911 128.677 268.445 122.951 261.923C117.224 255.401 116.485 247.292 121.299 243.811C126.113 240.33 123.929 250.553 129.655 257.075Z" fill="white"/>
<path d="M129.655 257.075C135.381 263.597 146.849 263.95 142.035 267.43C137.221 270.911 128.677 268.445 122.951 261.923C117.224 255.401 116.485 247.292 121.299 243.811C126.113 240.33 123.929 250.553 129.655 257.075Z" fill="black"/>
<path d="M163.937 251.078C173.071 240.15 173.275 217.93 180.008 222.564C186.741 227.199 185.694 249.031 176.56 259.959C167.426 270.887 154.564 275.989 147.831 271.354C141.098 266.719 154.803 262.006 163.937 251.078Z" fill="black"/>
<ellipse cx="116.589" cy="102.802" rx="4.0006" ry="4.14925" fill="black"/>
<ellipse cx="190.314" cy="102.802" rx="4.0006" ry="4.14925" fill="black"/>
</g>
<defs>
<clipPath id="clip0_243_340">
<rect width="300" height="300" fill="white"/>
</clipPath>
</defs>
</svg>
